Coordinates	
version=1	
nRows=336	
nColumns=2	
inDegrees=yes	
endheader	
time	elbow_flexion
1.258949819	4.282175862
1.261396551	4.353972525
1.263843283	4.436269701
1.266290015	4.528601966
1.268736747	4.630471538
1.271183479	4.74134589
1.273630211	4.860670935
1.276076943	4.987871809
1.278523675	5.122362959
1.280970407	5.263550905
1.283417139	5.410841725
1.285863871	5.563644613
1.288310603	5.721377239
1.290757335	5.883469412
1.293204067	6.049367052
1.295650799	6.218534278
1.298097531	6.390455801
1.300544263	6.564638725
1.302990995	6.740613946
1.305437728	6.91793698
1.30788446	7.096188111
1.310331192	7.274972323
1.312777924	7.453919515
1.315224656	7.632684583
1.317671388	7.810947041
1.32011812	7.988410246
1.322564852	8.164800418
1.325011584	8.339865533
1.327458316	8.513374154
1.329905048	8.685114237
1.33235178	8.854891913
1.334798512	9.022530291
1.337245244	9.187868242
1.339691976	9.350759301
1.342138708	9.511070532
1.34458544	9.668681443
1.347032172	9.823482969
1.349478904	9.975376509
1.351925636	10.12427302
1.354372368	10.27009218
1.356819101	10.41276156
1.359265833	10.55221593
1.361712565	10.68839669
1.364159297	10.82125115
1.366606029	10.95073197
1.369052761	11.07679662
1.371499493	11.19940686
1.373946225	11.31852831
1.376392957	11.43413031
1.378839689	11.54618626
1.381286421	11.65467287
1.383733153	11.75956962
1.386179885	11.86085851
1.388626617	11.95852391
1.391073349	12.05255235
1.393520081	12.14293235
1.395966813	12.22965428
1.398413545	12.31271024
1.400860277	12.39209391
1.403307009	12.46780051
1.405753741	12.53982666
1.408200474	12.60817035
1.410647206	12.67283083
1.413093938	12.7338086
1.41554067	12.79110535
1.417987402	12.84472391
1.420434134	12.89466821
1.422880866	12.94094328
1.425327598	12.98355517
1.42777433	13.022511
1.430221062	13.05781886
1.432667794	13.08948785
1.435114526	13.11752804
1.437561258	13.14195044
1.44000799	13.16276702
1.442454722	13.17999044
1.444901454	13.1936346
1.447348186	13.20371428
1.449794918	13.21024508
1.45224165	13.21324348
1.454688382	13.21272679
1.457135114	13.20871322
1.459581847	13.20122178
1.462028579	13.19027234
1.464475311	13.17588557
1.466922043	13.15808297
1.469368775	13.13688693
1.471815507	13.11232067
1.474262239	13.08440787
1.476708971	13.05317316
1.479155703	13.01864194
1.481602435	12.98084038
1.484049167	12.9397954
1.486495899	12.89553469
1.488942631	12.84808665
1.491389363	12.79748047
1.493836095	12.74374605
1.496282827	12.68691405
1.498729559	12.62701589
1.501176291	12.56408376
1.503623023	12.49815062
1.506069755	12.42925021
1.508516487	12.35741711
1.510963219	12.28268674
1.513409952	12.20509539
1.515856684	12.12468028
1.518303416	12.04147958
1.520750148	11.95553251
1.52319688	11.86687937
1.525643612	11.77556163
1.528090344	11.68162202
1.530537076	11.58510463
1.532983808	11.486055
1.53543054	11.38452027
1.537877272	11.28054929
1.540324004	11.1741935
1.542770736	11.06550714
1.545217468	10.95454672
1.5476642	10.84137119
1.550110932	10.72604219
1.552557664	10.60862425
1.555004396	10.48918505
1.557451128	10.36779572
1.55989786	10.24453107
1.562344592	10.11947004
1.564791325	9.992695818
1.567238057	9.86429624
1.569684789	9.734364205
1.572131521	9.602998023
1.574578253	9.470301803
1.577024985	9.336385833
1.579471717	9.201366994
1.581918449	9.065369164
1.584365181	8.928523617
1.586811913	8.790969441
1.589258645	8.652853843
1.591705377	8.514332515
1.594152109	8.375569961
1.596598841	8.236739767
1.599045573	8.098024829
1.601492305	7.959617537
1.603939037	7.821719891
1.606385769	7.684543557
1.608832501	7.548309826
1.611279233	7.413249493
1.613725965	7.279602623
1.616172698	7.147618197
1.61861943	7.017553644
1.621066162	6.889674226
1.623512894	6.764252291
1.625959626	6.641566364
1.628406358	6.521900099
1.63085309	6.405541068
1.633299822	6.292779399
1.635746554	6.183906264
1.638193286	6.079212228
1.640640018	5.978985475
1.64308675	5.883509909
1.645533482	5.793063164
1.647980214	5.707914521
1.650426946	5.62832274
1.652873678	5.554534508
1.65532041	5.486781741
1.657767142	5.425279364
1.660213874	5.370223336
1.662660606	5.321788736
1.665107338	5.280128008
1.667554071	5.245369376
1.670000803	5.217615482
1.672447535	5.196942242
1.674894267	5.183397994
1.677340999	5.177002888
1.679787731	5.177748601
1.682234463	5.185598323
1.684681195	5.200487065
1.687127927	5.222322234
1.689574659	5.250984517
1.692021391	5.286328999
1.694468123	5.328186547
1.696914855	5.376365387
1.699361587	5.430652884
1.701808319	5.490817452
1.704255051	5.5566106
1.706701783	5.627769042
1.709148515	5.704016872
1.711595247	5.78506786
1.714041979	5.870627812
1.716488711	5.960396373
1.718935443	6.054069017
1.721382176	6.151339009
1.723828908	6.251899238
1.72627564	6.355443912
1.728722372	6.46167003
1.731169104	6.57027865
1.733615836	6.680976099
1.736062568	6.793475171
1.7385093	6.907496245
1.740956032	7.022768218
1.743402764	7.139029217
1.745849496	7.256027136
1.748296228	7.373520009
1.75074296	7.491276269
1.753189692	7.609074896
1.755636424	7.726705479
1.758083156	7.843968184
1.760529888	7.960673669
1.76297662	8.076642919
1.765423352	8.19170704
1.767870084	8.305707
1.770316816	8.41849334
1.772763549	8.529925848
1.775210281	8.639873219
1.777657013	8.748212694
1.780103745	8.854829685
1.782550477	8.959617405
1.784997209	9.062476454
1.787443941	9.163314512
1.789890673	9.262045941
1.792337405	9.358591407
1.794784137	9.452877533
1.797230869	9.544836564
1.799677601	9.634406042
1.802124333	9.721528487
1.804571065	9.806151104
1.807017797	9.888225499
1.809464529	9.967707412
1.811911261	10.04455647
1.814357993	10.11873593
1.816804725	10.1902125
1.819251457	10.25895606
1.821698189	10.32493948
1.824144922	10.38813841
1.826591654	10.44853126
1.829038386	10.5060989
1.831485118	10.56082459
1.83393185	10.61269382
1.836378582	10.66169423
1.838825314	10.7078155
1.841272046	10.75104924
1.843718778	10.79138892
1.84616551	10.82882977
1.848612242	10.86336872
1.851058974	10.89500432
1.853505706	10.92373667
1.855952438	10.94956733
1.85839917	10.97249934
1.860845902	10.99253709
1.863292634	11.00968632
1.865739366	11.02395408
1.868186098	11.03534867
1.87063283	11.04387962
1.873079562	11.04955768
1.875526295	11.05239476
1.877973027	11.05240394
1.880419759	11.04959945
1.882866491	11.04399664
1.885313223	11.03561199
1.887759955	11.02446309
1.890206687	11.01056862
1.892653419	10.99394841
1.895100151	10.97462337
1.897546883	10.95261553
1.899993615	10.92794806
1.902440347	10.90064525
1.904887079	10.87073257
1.907333811	10.83823663
1.909780543	10.80318527
1.912227275	10.76560752
1.914674007	10.72553371
1.917120739	10.6829954
1.919567471	10.63802552
1.922014203	10.59065837
1.924460935	10.54092964
1.926907667	10.48887652
1.9293544	10.43453773
1.931801132	10.37795358
1.934247864	10.31916604
1.936694596	10.25821884
1.939141328	10.1951576
1.94158806	10.13002975
1.944034792	10.06288473
1.946481524	9.993774048
1.948928256	9.922751434
1.951374988	9.849872913
1.95382172	9.775196925
1.956268452	9.698784438
1.958715184	9.620699064
1.961161916	9.541007187
1.963608648	9.459778085
1.96605538	9.377084062
1.968502112	9.293000579
1.970948844	9.207606389
1.973395576	9.12098367
1.975842308	9.033218156
1.97828904	8.944399266
1.980735773	8.854620254
1.983182505	8.763978263
1.985629237	8.672574452
1.988075969	8.580514107
1.990522701	8.487906709
1.992969433	8.394866001
1.995416165	8.301510029
1.997862897	8.207961164
2.000309629	8.114346108
2.002756361	8.02079587
2.005203093	7.927445712
2.007649825	7.834435066
2.010096557	7.74190741
2.012543289	7.650010115
2.014990021	7.558894234
2.017436753	7.468714266
2.019883485	7.37962786
2.022330217	7.291795475
2.024776949	7.205379996
2.027223681	7.120546289
2.029670413	7.037460717
2.032117146	6.956290593
2.034563878	6.877203596
2.03701061	6.800367131
2.039457342	6.725947645
2.041904074	6.654109904
2.044350806	6.585016237
2.046797538	6.518825737
2.04924427	6.455693449
2.051691002	6.395769536
2.054137734	6.339198437
2.056584466	6.286118012
2.059031198	6.23665871
2.06147793	6.190942736
2.063924662	6.149083255
2.066371394	6.111183629
2.068818126	6.077336701
2.071264858	6.047624129
2.07371159	6.022115798
2.076158322	6.000869294
2.078605054	5.983929464
